<svg width="38" height="37" viewBox="0 0 38 37" fill="none" xmlns="http://www.w3.org/2000/svg">
<path d="M37.7849 9.99809C37.6754 9.84264 37.5302 9.71577 37.3615 9.62815C37.1927 9.54054 37.0054 9.49474 36.8153 9.49461H11.4861L9.56878 2.88406C8.81689 0.281008 7.03022 0 6.29742 0H1.18516C0.529904 0 0 0.530395 0 1.18489C0 1.83938 0.530501 2.36974 1.18512 2.36974H6.29679C6.4585 2.36974 6.95201 2.36974 7.28861 3.53255L13.8844 27.7679C14.0276 28.2792 14.4936 28.6323 15.0253 28.6323H31.136C31.6361 28.6323 32.0825 28.3191 32.2514 27.8484L37.93 11.0804C38.0606 10.717 38.0063 10.3125 37.7849 9.99809ZM30.302 26.2632H15.9248L12.1523 11.865H35.1303L30.302 26.2632ZM27.9515 31.0338C26.3033 31.0338 24.9678 32.369 24.9678 34.0169C24.9678 35.6648 26.3033 37 27.9515 37C29.5997 37 30.9352 35.6648 30.9352 34.0169C30.9352 32.369 29.5997 31.0338 27.9515 31.0338ZM17.2102 31.0338C15.562 31.0338 14.2265 32.369 14.2265 34.0169C14.2265 35.6648 15.562 37 17.2102 37C18.8584 37 20.1939 35.6648 20.1939 34.0169C20.1939 32.369 18.8584 31.0338 17.2102 31.0338Z" fill="black"/>
</svg>
