<svg width="18" height="19" viewBox="0 0 18 19" fill="none" xmlns="http://www.w3.org/2000/svg">
<path d="M12.9587 1.58329H15.0725C15.5205 1.57537 15.9559 1.73223 16.2959 2.02411C16.636 2.31598 16.857 2.72255 16.9171 3.16663V8.70829C16.857 9.15237 16.636 9.55894 16.2959 9.85081C15.9559 10.1427 15.5205 10.2996 15.0725 10.2916H12.9587M7.41706 11.875V15.0416C7.41706 15.6715 7.66728 16.2756 8.11268 16.721C8.55808 17.1664 9.16217 17.4166 9.79206 17.4166L12.9587 10.2916V1.58329H4.02872C3.64688 1.57898 3.27634 1.71281 2.98538 1.96012C2.69442 2.20744 2.50265 2.55158 2.44539 2.92913L1.35289 10.0541C1.31845 10.2811 1.33375 10.5128 1.39775 10.7332C1.46174 10.9536 1.57289 11.1575 1.7235 11.3307C1.87411 11.5039 2.06058 11.6423 2.26998 11.7362C2.47938 11.8302 2.70671 11.8776 2.93622 11.875H7.41706Z" stroke="#242628" stroke-width="2" stroke-linecap="round" stroke-linejoin="round"/>
</svg>
