<svg width="62" height="84" viewBox="0 0 62 84" fill="none" xmlns="http://www.w3.org/2000/svg">
<path d="M6.32433 0.460571C3.17937 0.460571 0.629883 2.99664 0.629883 6.12504V77.8751C0.629883 81.0035 3.17937 83.5395 6.32433 83.5395H55.6762C58.8211 83.5395 61.3706 81.0035 61.3706 77.8751V23.1185L38.5928 0.460571H6.32433Z" fill="#4E8DF5"/>
<path d="M6.32433 83.5395C3.17937 83.5395 0.629883 81.0034 0.629883 77.875V76.9309C0.629883 80.0593 3.17937 82.5954 6.32433 82.5954H55.6762C58.8211 82.5954 61.3706 80.0593 61.3706 76.9309V77.875C61.3706 81.0034 58.8211 83.5395 55.6762 83.5395H6.32433Z" fill="#417EE9"/>
<path d="M6.32433 0.460571C3.17937 0.460571 0.629883 2.99664 0.629883 6.12504V7.06912C0.629883 3.94072 3.17937 1.40465 6.32433 1.40465H39.5419L38.5928 0.460571H6.32433Z" fill="#639AF6"/>
<path d="M61.3701 42.4721V23.1185L58.0484 19.8142H42.0292C40.7609 19.8142 40.1258 21.3396 41.0226 22.2317L61.3701 42.4721Z" fill="url(#paint0_linear_4207_503)"/>
<path d="M38.5923 0.460571L61.3701 23.1185H44.2867C41.1418 23.1185 38.5923 20.5824 38.5923 17.454V0.460571Z" fill="#A6C5FA"/>
<path d="M46.1848 42H15.8145V45.7763H46.1848V42Z" fill="white"/>
<path d="M46.1848 49.5526H15.8145V53.3289H46.1848V49.5526Z" fill="white"/>
<path d="M15.8145 57.1053H46.1848V60.8816H15.8145V57.1053Z" fill="white"/>
<path d="M38.5922 64.6579H15.8145V68.4342H38.5922V64.6579Z" fill="white"/>
<defs>
<linearGradient id="paint0_linear_4207_503" x1="49.9812" y1="42.4721" x2="49.9812" y2="19.3422" gradientUnits="userSpaceOnUse">
<stop stop-color="#4E8DF5"/>
<stop offset="1" stop-color="#3D6ACD"/>
</linearGradient>
</defs>
</svg>
