<svg width="39" height="39" viewBox="0 0 39 39" fill="none" xmlns="http://www.w3.org/2000/svg">
<path fill-rule="evenodd" clip-rule="evenodd" d="M30.4614 8.539C29.3644 7.4423 27.8767 6.8262 26.3254 6.8262C24.7742 6.8262 23.2865 7.4423 22.1895 8.539L8.53949 22.189C7.47361 23.2921 6.88361 24.7697 6.89657 26.3035C6.90954 27.8374 7.52443 29.3048 8.60882 30.3897C9.6932 31.4746 11.1603 32.0901 12.6942 32.1038C14.228 32.1175 15.7059 31.5282 16.8094 30.4629H16.8114L17.7805 29.4879C18.0555 29.2204 18.4245 29.0716 18.808 29.0736C19.1916 29.0757 19.559 29.2283 19.8311 29.4986C20.1032 29.7689 20.2582 30.1353 20.2628 30.5188C20.2673 30.9024 20.121 31.2723 19.8553 31.549L18.8842 32.526L18.8803 32.5298C17.2347 34.1755 15.0027 35.1 12.6754 35.1C10.3482 35.1 8.11619 34.1755 6.47054 32.5298C4.8249 30.8842 3.90039 28.6522 3.90039 26.325C3.90039 23.9977 4.8249 21.7657 6.47054 20.1201L20.1205 6.47005C21.7652 4.82338 23.9965 3.89746 26.3238 3.896C28.6511 3.89454 30.8837 4.81764 32.5303 6.46225C34.177 8.10686 35.1029 10.3382 35.1044 12.6655C35.1059 14.9928 34.1828 17.2254 32.5381 18.8721L25.8009 25.8004C25.3305 26.2965 24.7655 26.6933 24.1392 26.9675C23.5129 27.2416 22.8381 27.3876 22.1545 27.3966C21.4709 27.4057 20.7924 27.2778 20.1591 27.0204C19.5258 26.7629 18.9504 26.3813 18.467 25.8978C17.9836 25.4144 17.6019 24.8391 17.3445 24.2057C17.0871 23.5724 16.9591 22.8939 16.9682 22.2103C16.9773 21.5267 17.1232 20.8519 17.3974 20.2256C17.6715 19.5994 18.0684 19.0344 18.5644 18.564L25.2919 11.8345C25.4268 11.6948 25.5881 11.5833 25.7665 11.5065C25.9449 11.4298 26.1368 11.3894 26.331 11.3876C26.5252 11.3858 26.7178 11.4227 26.8975 11.4962C27.0773 11.5696 27.2407 11.6781 27.378 11.8154C27.5154 11.9526 27.6241 12.1159 27.6977 12.2956C27.7713 12.4753 27.8084 12.6679 27.8068 12.862C27.8052 13.0562 27.765 13.2482 27.6884 13.4266C27.6119 13.6051 27.5005 13.7665 27.3609 13.9015L20.6334 20.631C20.4292 20.8341 20.267 21.0756 20.1561 21.3415C20.0451 21.6073 19.9877 21.8925 19.987 22.1806C19.9862 22.4687 20.0423 22.7541 20.1518 23.0205C20.2614 23.2869 20.4224 23.5292 20.6256 23.7334C20.8288 23.9376 21.0702 24.0998 21.3361 24.2107C21.602 24.3217 21.8871 24.3791 22.1752 24.3798C22.4633 24.3806 22.7487 24.3245 23.0151 24.215C23.2816 24.1054 23.5238 23.9444 23.728 23.7412L30.4633 16.8129C31.5601 15.7158 32.1761 14.2281 32.1761 12.6769C32.1761 11.1257 31.5601 9.63799 30.4633 8.54095L30.4614 8.539Z" fill="#999999"/>
</svg>
