<svg width="32" height="29" viewBox="0 0 32 29" fill="none" xmlns="http://www.w3.org/2000/svg">
<path d="M16.1584 24.5979L16.0001 24.7521L15.8259 24.5979C8.30508 17.9533 3.33341 13.5596 3.33341 9.10417C3.33341 6.02083 5.70841 3.70833 8.87508 3.70833C11.3134 3.70833 13.6884 5.25 14.5276 7.34667H17.4726C18.3117 5.25 20.6867 3.70833 23.1251 3.70833C26.2917 3.70833 28.6667 6.02083 28.6667 9.10417C28.6667 13.5596 23.6951 17.9533 16.1584 24.5979ZM23.1251 0.625C20.3701 0.625 17.7259 1.87375 16.0001 3.83167C14.2742 1.87375 11.6301 0.625 8.87508 0.625C3.99841 0.625 0.166748 4.34042 0.166748 9.10417C0.166748 14.9162 5.55008 19.68 13.7042 26.8796L16.0001 28.9146L18.2959 26.8796C26.4501 19.68 31.8334 14.9162 31.8334 9.10417C31.8334 4.34042 28.0017 0.625 23.1251 0.625Z" fill="black"/>
</svg>
