<svg width="19" height="19" viewBox="0 0 19 19" fill="none" xmlns="http://www.w3.org/2000/svg">
<path d="M5.33366 17.4166H2.83366C2.39163 17.4166 1.96771 17.2498 1.65515 16.9528C1.34259 16.6559 1.16699 16.2532 1.16699 15.8333V10.2916C1.16699 9.87166 1.34259 9.46893 1.65515 9.172C1.96771 8.87507 2.39163 8.70825 2.83366 8.70825H5.33366M11.167 7.12492V3.95825C11.167 3.32836 10.9036 2.72427 10.4348 2.27887C9.96592 1.83347 9.33003 1.58325 8.66699 1.58325L5.33366 8.70825V17.4166H14.7337C15.1356 17.4209 15.5256 17.2871 15.8319 17.0398C16.1382 16.7924 16.3401 16.4483 16.4003 16.0708L17.5503 8.94575C17.5866 8.71883 17.5705 8.48712 17.5031 8.2667C17.4357 8.04628 17.3187 7.8424 17.1602 7.6692C17.0017 7.496 16.8054 7.35761 16.585 7.26363C16.3645 7.16965 16.1252 7.12232 15.8837 7.12492H11.167Z" stroke="#242628" stroke-width="2" stroke-linecap="round" stroke-linejoin="round"/>
</svg>
