<svg width="40" height="40" viewBox="0 0 40 40" fill="none" xmlns="http://www.w3.org/2000/svg">
<path d="M19.9995 7.82617C18.6236 7.82617 17.2787 8.25966 16.1347 9.07183C14.9907 9.884 14.099 11.0384 13.5725 12.3889C13.046 13.7395 12.9082 15.2257 13.1766 16.6594C13.4451 18.0932 14.1076 19.4102 15.0805 20.4439C16.0534 21.4776 17.2929 22.1816 18.6423 22.4668C19.9918 22.752 21.3905 22.6056 22.6616 22.0461C23.9328 21.4867 25.0192 20.5394 25.7836 19.3239C26.548 18.1084 26.956 16.6793 26.956 15.2175C26.956 13.2572 26.2231 11.3772 24.9185 9.99103C23.6139 8.6049 21.8445 7.82617 19.9995 7.82617Z" fill="black"/>
<path d="M20 0C16.0444 0 12.1776 1.17298 8.8886 3.37061C5.59962 5.56823 3.03617 8.69181 1.52242 12.3463C0.00866566 16.0009 -0.387401 20.0222 0.384303 23.9018C1.15601 27.7814 3.06082 31.3451 5.85787 34.1421C8.65492 36.9392 12.2186 38.844 16.0982 39.6157C19.9778 40.3874 23.9991 39.9913 27.6537 38.4776C31.3082 36.9638 34.4318 34.4004 36.6294 31.1114C38.827 27.8224 40 23.9556 40 20C39.9939 14.6975 37.8849 9.61396 34.1355 5.86454C30.386 2.11513 25.3025 0.0060496 20 0ZM31.4171 32.7514C31.3887 30.8776 30.6252 29.09 29.2913 27.7737C27.9574 26.4574 26.1597 25.7178 24.2857 25.7143H15.7143C13.8403 25.7178 12.0426 26.4574 10.7087 27.7737C9.37478 29.09 8.61133 30.8776 8.58286 32.7514C5.99224 30.4382 4.16534 27.3927 3.34406 24.0181C2.52278 20.6435 2.74586 17.0991 3.98378 13.8541C5.22169 10.6091 7.41604 7.81667 10.2763 5.84652C13.1365 3.87638 16.5276 2.82146 20.0007 2.82146C23.4738 2.82146 26.865 3.87638 29.7252 5.84652C32.5854 7.81667 34.7797 10.6091 36.0177 13.8541C37.2556 17.0991 37.4787 20.6435 36.6574 24.0181C35.8361 27.3927 34.0078 30.4382 31.4171 32.7514Z" fill="black"/>
</svg>
