<svg width="5" height="24" viewBox="0 0 5 24" fill="none" xmlns="http://www.w3.org/2000/svg">
<path d="M3.07812 16.6562H1.375L0.65625 0.15625H3.79688L3.07812 16.6562ZM0.34375 21.375C0.34375 20.6458 0.520833 20.1302 0.875 19.8281C1.22917 19.5156 1.67188 19.3594 2.20312 19.3594C2.72396 19.3594 3.16146 19.5156 3.51562 19.8281C3.88021 20.1302 4.0625 20.6458 4.0625 21.375C4.0625 22.0938 3.88021 22.6198 3.51562 22.9531C3.16146 23.276 2.72396 23.4375 2.20312 23.4375C1.67188 23.4375 1.22917 23.276 0.875 22.9531C0.520833 22.6198 0.34375 22.0938 0.34375 21.375Z" fill="#00AAA1"/>
</svg>
