<svg width="964" height="120" viewBox="0 0 964 120" fill="none" xmlns="http://www.w3.org/2000/svg">
<path d="M914.181 1H15C7.26801 1 1 7.26801 1 15V105C1 112.732 7.26801 119 15 119H914.181C921.913 119 928.181 112.732 928.181 105V101.694C928.181 93.9619 934.449 87.6939 942.181 87.6939H949C956.732 87.6939 963 81.4258 963 73.6939V45.102C963 37.3701 956.732 31.102 949 31.102H942.181C934.449 31.102 928.181 24.834 928.181 17.102V15C928.181 7.26801 921.913 1 914.181 1Z" stroke="#696F79" stroke-opacity="0.32" stroke-width="0.5"/>
</svg>
